PathFileType	4	(X/Y/Z)	C:/Users/opensim2020/Desktop/walking_exp_matlab/subject06_walking23_straight_02.trc																																																																																																																																					
DataRate	CameraRate	NumFrames	NumMarkers	Units	OrigDataRate	OrigDataStartFrame	OrigNumFrames																																																																																																																																	
100	100	4	45	mm	100	1319	114																																																																																																																																	
Frame#	Time	LFHD			RFHD			LBHD			RBHD			C7			T10			CLAV			STRN			RBAK			LSHO			LUPA			LELB			LFRM			LWRA			LWRB			LFIN			RSHO			RUPA			RELB			RFRM			RWRA			RWRB			RFIN			LASI			RASI			LPSI			RPSI			LTHI			LKNE			LTIB			LANK			LHEE			LTOE			RTHI			RKNE			RTIB			RANK			RHEE			RTOE			*39			*40			*41			*42			*43			*44		
		X1	Y1	Z1	X2	Y2	Z2	X3	Y3	Z3	X4	Y4	Z4	X5	Y5	Z5	X6	Y6	Z6	X7	Y7	Z7	X8	Y8	Z8	X9	Y9	Z9	X10	Y10	Z10	X11	Y11	Z11	X12	Y12	Z12	X13	Y13	Z13	X14	Y14	Z14	X15	Y15	Z15	X16	Y16	Z16	X17	Y17	Z17	X18	Y18	Z18	X19	Y19	Z19	X20	Y20	Z20	X21	Y21	Z21	X22	Y22	Z22	X23	Y23	Z23	X24	Y24	Z24	X25	Y25	Z25	X26	Y26	Z26	X27	Y27	Z27	X28	Y28	Z28	X29	Y29	Z29	X30	Y30	Z30	X31	Y31	Z31	X32	Y32	Z32	X33	Y33	Z33	X34	Y34	Z34	X35	Y35	Z35	X36	Y36	Z36	X37	Y37	Z37	X38	Y38	Z38	X39	Y39	Z39	X40	Y40	Z40	X41	Y41	Z41	X42	Y42	Z42	X43	Y43	Z43	X44	Y44	Z44	X45	Y45	Z45
																																																																																																																																								
43	0.42	-202.16194	1642.66174	871.23865	-185.57945	1644.90625	1002.59149	-335.21228	1592.99048	893.44073	-317.1716	1599.62073	1021.43958	-331.10107	1437.98645	951.28888	-366.10547	1108.56042	967.16461	-218.8667	1362.7605	955.73413	-176.21791	1193.11816	957.74951	-405.89252	1269.99841	1034.47388	-270.90799	1387.54797	791.84015	-293.7171	1186.84265	719.92731	-316.75189	1076.39844	707.9527	-313.31375	927.12408	683.4801	-274.72992	803.20575	726.02948	-331.10693	809.83929	683.15857	-306.66574	721.62256	684.31384	-269.80789	1396.86658	1114.60742	-305.55295	1204.85742	1213.58911	-290.49545	1084.73657	1233.46082	-244.18895	975.27606	1249.28918	-146.39439	864.67487	1208.21216	-194.22089	847.97369	1253.21179	-134.41548	788.59454	1248.93616	-175.68977	962.84375	869.422	-195.29785	959.99786	1087.22266	-337.61642	977.0036	885.50897	-344.55148	970.98169	1051.47168	-183.81903	645.76062	807.71021	-140.68188	490.1452	838.89221	-177.08667	233.73296	848.22449	-190.84294	64.87307	895.15454	-233.37827	52.21553	939.20886	-47.3814	35.09683	902.83636	-219.32109	611.43561	1140.52246	-192.37541	487.03006	1129.37341	-385.31796	327.93109	1113.8147	-539.25189	229.90735	1063.57764	-576.08472	249.72939	1016.70795	-496.60678	78.20177	1059.68384	-293.2229	1689.67859	938.20715	NaN	NaN	NaN	NaN	NaN	NaN	NaN	NaN	NaN	NaN	NaN	NaN	NaN	NaN	NaN
44	0.43	-187.70818	1644.59277	870.90442	-170.97287	1646.62073	1002.28882	-320.89999	1595.51233	893.16907	-302.82956	1601.88806	1021.18127	-317.57645	1440.20532	950.63214	-352.66647	1110.64612	966.02374	-205.38083	1364.90125	955.29407	-162.89668	1195.36096	957.12628	-392.76422	1272.1366	1032.87427	-256.92841	1389.87915	791.32324	-275.84171	1188.68787	719.42999	-296.05267	1077.81506	706.77692	-289.14597	928.43384	682.95294	-247.56589	805.87622	726.82336	-303.63867	810.64618	682.98175	-276.04272	723.5744	684.24921	-256.92908	1398.74963	1114.1134	-294.07657	1206.50549	1212.11243	-279.63031	1086.10498	1231.61877	-235.99695	975.34338	1247.51038	-141.58415	861.91296	1206.62036	-189.7153	846.54425	1251.745	-131.51865	785.54242	1247.34827	-162.79262	964.79785	868.42804	-181.33815	962.72986	1086.43469	-324.43298	979.11926	885.33948	-330.50665	973.48914	1051.27014	-174.48178	646.57843	807.66193	-134.18919	489.88266	838.6239	-173.93861	233.66321	847.75354	-190.41501	64.90034	895.0495	-232.62868	52.07523	938.68744	-47.32465	35.0078	902.66895	-198.59149	615.15448	1139.91357	-167.92487	491.69611	1128.09851	-357.04938	328.04007	1112.93799	-509.01138	225.81305	1062.98145	-547.31732	243.89369	1015.9823	-459.12515	77.0972	1060.24817	-278.47028	1691.95691	938.09094	NaN	NaN	NaN	NaN	NaN	NaN	NaN	NaN	NaN	NaN	NaN	NaN	NaN	NaN	NaN
45	0.44	-173.25504	1646.29443	870.76373	-156.44469	1648.09448	1002.10498	-306.73822	1598.03149	893.01263	-288.48926	1604.11987	1020.98163	-304.06018	1442.17371	949.98633	-339.35449	1112.75513	965.01971	-191.99464	1366.90393	954.86157	-149.61116	1197.48279	956.54547	-379.67422	1274.21912	1031.54993	-243.12749	1392.2312	790.87183	-258.23889	1190.59302	718.96442	-276.24539	1079.36243	706.17181	-264.32425	930.00421	683.22498	-220.8844	808.76093	727.27301	-275.80798	812.05231	682.70892	-245.06697	726.03802	684.36053	-244.16296	1400.63977	1113.53674	-282.67023	1208.15955	1210.57166	-269.03247	1087.57239	1229.62939	-227.94266	975.67285	1245.6864	-137.70129	859.08063	1204.90918	-185.50378	845.47577	1250.37988	-129.00473	782.7099	1245.91272	-149.68874	966.47229	867.19501	-167.39838	965.32538	1085.59277	-311.17575	981.03656	885.08667	-316.41003	975.89368	1051.15088	-165.42305	647.21124	807.64337	-127.95615	489.52853	838.19171	-170.769	233.57104	847.35553	-189.94792	64.82788	895.16418	-232.49084	52.50421	938.44885	-47.20022	34.88433	902.44861	-177.99426	618.89172	1139.35889	-144.01642	496.38644	1126.86914	-328.8866	327.21109	1111.96338	-478.08298	220.50316	1062.34412	-517.6142	236.53691	1015.20428	-420.64532	75.23216	1060.9231	-263.76031	1694.30713	938.33997	NaN	NaN	NaN	NaN	NaN	NaN	NaN	NaN	NaN	NaN	NaN	NaN	NaN	NaN	NaN
46	0.45	-158.86627	1647.91943	870.7088	-142.04364	1649.37097	1002.06232	-292.62341	1600.4928	892.91431	-274.20688	1606.21948	1020.83295	-290.7887	1444.04187	949.42859	-325.97269	1114.74097	964.1886	-178.80321	1368.82324	954.47699	-136.3551	1199.47192	955.99646	-366.50604	1276.18408	1030.48828	-229.54132	1394.45874	790.50464	-241.00037	1192.56152	718.44775	-256.45993	1080.96765	705.44232	-240.13683	932.00952	682.73688	-192.94464	812.39136	728.2583	-247.86761	813.63281	682.83539	-213.8322	729.02325	684.47803	-231.50084	1402.48926	1112.99353	-271.0072	1209.82617	1209.27124	-258.69641	1089.06372	1227.66187	-220.13902	976.11694	1243.83972	-133.29019	856.64374	1203.44519	-181.40181	844.50452	1248.92554	-126.79984	780.12476	1244.59387	-136.66193	967.97858	865.9679	-153.45232	967.71765	1084.7207	-297.95602	982.87201	884.8504	-302.45462	978.18231	1051.02527	-156.39972	647.57776	807.42303	-122.64282	488.97192	837.92206	-168.10519	233.57967	847.17926	-189.45863	65.27665	894.96234	-232.18095	52.93169	938.54486	-47.15303	34.7873	902.06598	-157.43446	622.37927	1138.83325	-120.66632	500.91855	1125.73792	-300.62585	325.73856	1110.93823	-446.38434	214.09189	1061.56396	-487.04971	227.7729	1014.40662	-381.11823	73.00566	1061.69165	-249.02249	1696.36914	938.41278	NaN	NaN	NaN	NaN	NaN	NaN	NaN	NaN	NaN	NaN	NaN	NaN	NaN	NaN	NaN
